<svg width="26" height="26" viewBox="0 0 26 26" fill="none" xmlns="http://www.w3.org/2000/svg">
<g clip-path="url(#clip0)">
<path d="M24.1513 9.30352L21.8542 7.07972L21.9299 6.77202L24.4417 6.05258C24.6325 5.99799 24.7636 5.82816 24.7636 5.6355C24.7636 5.44283 24.6325 5.273 24.4417 5.21842L21.9299 4.49897L21.3824 2.273C21.3341 2.07696 21.1534 1.93877 20.9454 1.93877C20.7375 1.93877 20.5568 2.07696 20.5085 2.273L19.9615 4.49897L19.3651 4.66978L15.7774 1.1966C15.1141 0.554238 14.2319 0.200439 13.2941 0.200439C12.3558 0.200439 11.474 0.554238 10.8108 1.1966L2.43697 9.30352C1.06746 10.6292 1.06746 12.7868 2.43697 14.1125L2.8563 14.5185L2.36318 16.2129C2.10433 17.5323 0.521233 19.8009 0.505398 19.8236C0.384338 19.9963 0.406686 20.228 0.559302 20.3755L5.54005 25.1978C5.62686 25.2819 5.74186 25.3252 5.85764 25.3252C5.94186 25.3252 6.02699 25.3023 6.10156 25.2553L8.7779 23.5781C9.46518 23.1473 10.1231 22.6716 10.7532 22.1639L10.8107 22.2194C11.4739 22.8618 12.3557 23.2154 13.294 23.2154C14.2319 23.2154 15.114 22.8618 15.7773 22.2194L24.151 14.1125C25.5203 12.7866 25.5203 10.6294 24.1513 9.30352ZM20.4655 5.26169C20.6199 5.21755 20.7379 5.09686 20.7752 4.9453L20.9454 4.25238L21.1161 4.9453C21.1534 5.09697 21.2714 5.21755 21.4259 5.26169L22.7309 5.6355L21.4259 6.0093C21.2714 6.05345 21.1534 6.17413 21.1161 6.3257L20.9454 7.01862L20.7752 6.3257C20.7379 6.17402 20.6199 6.05345 20.4655 6.0093L19.1604 5.6355L20.4655 5.26169ZM8.28962 22.8481L5.91862 24.3342L1.45333 20.011C1.91567 19.3156 3.00891 17.5809 3.237 16.4121L5.15228 9.83031C5.2273 9.44889 5.57689 9.18686 5.98398 9.22556C6.19151 9.2447 6.37838 9.34147 6.50999 9.49825C6.63678 9.64906 6.69686 9.83715 6.68024 10.03L5.78711 13.7773C5.74242 13.9665 5.83181 14.1615 6.00734 14.2555C6.18151 14.3496 6.40039 14.3201 6.54256 14.1827L12.9915 7.9391C13.2429 7.69599 13.6785 7.69675 13.929 7.9391C14.054 8.06033 14.1233 8.22158 14.1233 8.39293C14.1233 8.5645 14.054 8.72575 13.929 8.84698C13.929 8.84698 13.929 8.84708 13.9289 8.84708L9.18432 13.4409C9.0089 13.6108 9.0089 13.8861 9.18432 14.0559C9.35973 14.2257 9.64407 14.2257 9.81949 14.0559L15.875 8.19287C16.1338 7.94269 16.554 7.94269 16.8129 8.19287C16.9379 8.3141 17.0068 8.47535 17.0068 8.64692C17.0068 8.81827 16.938 8.97951 16.8129 9.10075L15.2301 10.633C15.2299 10.6333 15.2296 10.6335 15.2292 10.6337L10.757 14.9636C10.5816 15.1335 10.5816 15.4088 10.757 15.5786C10.8447 15.6635 10.9597 15.706 11.0746 15.706C11.1894 15.706 11.3044 15.6635 11.3921 15.5786L15.865 11.2483C16.1291 10.993 16.5586 10.9931 16.8234 11.2487C17.0876 11.5046 17.0876 11.9212 16.8234 12.1771L15.5338 13.4257L12.11 16.7404C11.9346 16.9102 11.9346 17.1855 12.11 17.3553C12.2854 17.5252 12.5697 17.5252 12.7451 17.3553L12.9858 17.1223C12.986 17.1221 12.9862 17.1221 12.9864 17.1219L16.169 14.0406C16.4133 13.8037 16.8402 13.8031 17.0853 14.0408C17.2077 14.1591 17.2752 14.3166 17.2752 14.4842C17.2752 14.6517 17.2076 14.8093 17.0853 14.9278L11.5053 20.3303C10.5296 21.2749 9.44777 22.122 8.28962 22.8481ZM23.516 13.4976L15.1422 21.6045C14.6483 22.0825 13.992 22.3456 13.2941 22.3456C12.5957 22.3456 11.9395 22.0825 11.4459 21.6043L11.4348 21.5935C11.6748 21.3823 11.9113 21.1674 12.1404 20.9455L17.7204 15.5429C18.0126 15.26 18.1735 14.8842 18.1735 14.4844C18.1735 14.0843 18.0125 13.7084 17.7204 13.426C17.5583 13.2688 17.3614 13.1599 17.1509 13.0899L17.4585 12.7921C18.0731 12.1971 18.0731 11.2288 17.4585 10.6335C17.2861 10.4669 17.0822 10.352 16.8663 10.2788L17.4479 9.71571C17.7427 9.4303 17.905 9.05062 17.905 8.64692C17.905 8.243 17.7427 7.86332 17.4479 7.57769C16.8377 6.98796 15.8481 6.98904 15.2397 7.57791L14.9247 7.88289C14.8494 7.67914 14.7324 7.48691 14.5642 7.32414C13.9751 6.75311 12.9464 6.75224 12.3564 7.32414L7.01512 12.4954L7.56258 10.1983C7.56651 10.1818 7.56921 10.1652 7.57134 10.1487C7.62087 9.7144 7.49195 9.28863 7.20727 8.94951C6.92258 8.6106 6.51853 8.40098 6.06933 8.35955C5.20248 8.28051 4.43176 8.84241 4.27869 9.63112L3.13581 13.5589L3.07236 13.4975C2.05335 12.5106 2.05335 10.9052 3.07236 9.91837L11.4462 1.81145C11.9397 1.33349 12.5959 1.07015 13.2943 1.07015C13.9922 1.07015 14.6485 1.33349 15.1424 1.81145L18.3849 4.95041L17.4494 5.21831C17.2586 5.27289 17.1274 5.44272 17.1274 5.63539C17.1274 5.82805 17.2586 5.99789 17.4494 6.05247L19.9617 6.77192L20.5087 8.99789C20.557 9.19392 20.7377 9.33212 20.9457 9.33212C21.1536 9.33212 21.3343 9.19392 21.3826 8.99789L21.61 8.07305L23.5163 9.91848C24.5347 10.9053 24.5347 12.5108 23.516 13.4976Z" fill="#8FD16C"/>
<path d="M2.96092 1.70521C3.20922 1.70521 3.41012 1.51048 3.41012 1.2703V0.400485C3.41012 0.160307 3.20922 -0.0344238 2.96092 -0.0344238C2.71262 -0.0344238 2.51172 0.160307 2.51172 0.400485V1.2703C2.51172 1.51048 2.71262 1.70521 2.96092 1.70521Z" fill="#8FD16C"/>
<path d="M2.96092 2.57507C2.71262 2.57507 2.51172 2.7698 2.51172 3.00998V3.8798C2.51172 4.11998 2.71262 4.31471 2.96092 4.31471C3.20922 4.31471 3.41012 4.11998 3.41012 3.8798V3.00998C3.41012 2.7698 3.20922 2.57507 2.96092 2.57507Z" fill="#8FD16C"/>
<path d="M1.16405 2.57502H2.06245C2.31075 2.57502 2.51165 2.38029 2.51165 2.14011C2.51165 1.89993 2.31075 1.7052 2.06245 1.7052H1.16405C0.915749 1.7052 0.714844 1.89993 0.714844 2.14011C0.714844 2.38029 0.915749 2.57502 1.16405 2.57502Z" fill="#8FD16C"/>
<path d="M3.86131 2.57502H4.75971C5.00801 2.57502 5.20891 2.38029 5.20891 2.14011C5.20891 1.89993 5.00801 1.7052 4.75971 1.7052H3.86131C3.61301 1.7052 3.41211 1.89993 3.41211 2.14011C3.41211 2.38029 3.61301 2.57502 3.86131 2.57502Z" fill="#8FD16C"/>
<path d="M22.0527 21.2761C21.1858 21.2761 20.4805 21.959 20.4805 22.7983C20.4805 23.6376 21.1858 24.3205 22.0527 24.3205C22.9195 24.3205 23.6249 23.6376 23.6249 22.7983C23.6249 21.959 22.9195 21.2761 22.0527 21.2761ZM22.0527 23.4507C21.6811 23.4507 21.3789 23.1581 21.3789 22.7983C21.3789 22.4385 21.6811 22.1459 22.0527 22.1459C22.4243 22.1459 22.7265 22.4385 22.7265 22.7983C22.7265 23.1581 22.4242 23.4507 22.0527 23.4507Z" fill="#8FD16C"/>
</g>
<defs>
<clipPath id="clip0">
<rect width="26" height="26" fill="white"/>
</clipPath>
</defs>
</svg>
