<svg width="26" height="26" viewBox="0 0 26 26" fill="none" xmlns="http://www.w3.org/2000/svg">
<path d="M10.5476 13.7358H3.67969V14.7169H10.5476V13.7358Z" fill="#8FD16C"/>
<path d="M22.323 13.7358H15.4551V14.7169H22.323V13.7358Z" fill="#8FD16C"/>
<path d="M10.5476 17.1698H3.67969V18.1509H10.5476V17.1698Z" fill="#8FD16C"/>
<path d="M10.5476 20.6038H3.67969V21.5849H10.5476V20.6038Z" fill="#8FD16C"/>
<path d="M22.323 17.1698H15.4551V18.1509H22.323V17.1698Z" fill="#8FD16C"/>
<path d="M22.323 20.6038H15.4551V21.5849H22.323V20.6038Z" fill="#8FD16C"/>
<path d="M24.2834 10.3019H15.4486C14.4276 10.3019 13.5273 10.827 13.0004 11.6216C12.4734 10.8272 11.5732 10.3019 10.5521 10.3019H1.71712C1.44628 10.3019 1.22656 10.5214 1.22656 10.7924V25.5094C1.22656 25.7805 1.44628 26 1.71712 26H13.0001H24.2831C24.554 26 24.7737 25.7805 24.7737 25.5094V10.7924C24.7738 10.5214 24.5542 10.3019 24.2834 10.3019ZM12.5097 25.0189H2.20779V11.283H10.552C11.6315 11.283 12.5097 12.1645 12.5097 13.2477V25.0189ZM23.7928 25.0189H13.4909V13.2477C13.4909 12.1646 14.3691 11.283 15.4486 11.283H23.7928V25.0189Z" fill="#8FD16C"/>
<path d="M10.7982 7.26559C11.3949 7.80976 12.4343 8.69516 12.9516 8.76317L12.9514 8.76555C12.9624 8.7665 12.9739 8.76697 12.9856 8.76697C12.9945 8.76697 13.0036 8.76745 13.0123 8.76745C13.0233 8.76745 13.034 8.76697 13.0446 8.76602L13.0444 8.76317C13.5181 8.70134 14.444 7.94304 15.1609 7.29293C16.1859 6.36413 17.9053 4.58477 17.9053 3.10693C17.9052 1.10333 16.8015 0 14.7982 0C14.1469 0 13.522 0.201287 12.9995 0.572948C12.4771 0.201287 11.852 0 11.2008 0C9.19732 0 8.09375 1.10333 8.09375 3.10681C8.09375 4.57895 9.78834 6.34428 10.7982 7.26559ZM11.2008 0.98111C11.7472 0.98111 12.266 1.18763 12.6622 1.56262C12.851 1.74179 13.148 1.74179 13.3367 1.56262C13.7329 1.18751 14.2517 0.98111 14.7982 0.98111C16.2684 0.98111 16.924 1.63645 16.924 3.10669C16.924 4.61283 13.7846 7.3028 12.9963 7.75222C12.2107 7.31243 9.07486 4.63923 9.07486 3.10669C9.07498 1.63645 9.73044 0.98111 11.2008 0.98111Z" fill="#8FD16C"/>
</svg>
