<svg width="27" height="24" viewBox="0 0 27 24" fill="none" xmlns="http://www.w3.org/2000/svg">
<path d="M22.3241 0.908203H4.41186C2.33747 0.908203 0.658203 2.56226 0.658203 4.6055V17.7082C0.658203 19.7515 2.33747 21.4055 4.41186 21.4055H18.4716L21.896 23.7406C21.9948 23.8055 22.1265 23.8379 22.2582 23.8379C22.357 23.8379 22.4558 23.8055 22.5546 23.7731C22.7521 23.6758 22.9167 23.4487 22.9167 23.2217L22.9826 21.3731C24.7606 21.0812 26.1106 19.5569 26.1106 17.7082V4.6055C26.0777 2.56226 24.3985 0.908203 22.3241 0.908203ZM24.7936 17.7082C24.7936 19.0379 23.707 20.1406 22.3241 20.1406C21.9619 20.1406 21.6985 20.4001 21.6655 20.7569L21.6326 22.0217L19.0314 20.2704C18.9326 20.2055 18.8009 20.1731 18.6692 20.1731H4.41186C3.06186 20.1731 1.94235 19.1028 1.94235 17.7406V4.6055C1.94235 3.27577 3.02894 2.17307 4.41186 2.17307H22.3241C23.6741 2.17307 24.7936 3.24334 24.7936 4.6055V17.7082Z" fill="#8FD16C"/>
<path d="M20.1845 8.20538H17.4516L18.3735 5.44862C18.5052 5.05943 18.2747 4.63781 17.8796 4.50808C17.4845 4.37835 17.0564 4.60538 16.9247 4.99457L15.8711 8.20538H12.9077L13.8296 5.44862C13.9613 5.05943 13.7308 4.63781 13.3357 4.50808C12.9406 4.37835 12.5125 4.60538 12.3808 4.99457L11.3272 8.20538H8.10035C7.6723 8.20538 7.34304 8.5297 7.34304 8.95133C7.34304 9.37295 7.6723 9.69727 8.10035 9.69727H10.8333L9.84547 12.7135H6.61865C6.1906 12.7135 5.86133 13.0378 5.86133 13.4594C5.86133 13.8811 6.1906 14.2054 6.61865 14.2054H9.35157L8.42962 16.9621C8.29791 17.3513 8.5284 17.7729 8.92352 17.9027C8.98938 17.9351 9.08816 17.9351 9.15401 17.9351C9.48328 17.9351 9.77962 17.7405 9.8784 17.4162L10.9321 14.2054H13.8955L12.9735 16.9621C12.8418 17.3513 13.0723 17.7729 13.4674 17.9027C13.5333 17.9351 13.6321 17.9351 13.6979 17.9351C14.0272 17.9351 14.3235 17.7405 14.4223 17.4162L15.476 14.2054H18.7028C19.1308 14.2054 19.4601 13.8811 19.4601 13.4594C19.4601 13.0378 19.1308 12.7135 18.7028 12.7135H15.9699L16.9577 9.69727H20.1845C20.6125 9.69727 20.9418 9.37295 20.9418 8.95133C20.9418 8.5297 20.5796 8.20538 20.1845 8.20538ZM15.3443 9.66484L14.3564 12.6811H11.393L12.3808 9.66484H15.3443Z" fill="#8FD16C"/>
</svg>
