<svg width="28" height="27" viewBox="0 0 28 27" fill="none" xmlns="http://www.w3.org/2000/svg">
<path fill-rule="evenodd" clip-rule="evenodd" d="M20.3136 9.34978L22.0286 7.72501L20.8552 6.28077H17.9667L16.7933 7.72501L18.418 9.34978C16.7933 9.53031 15.2587 10.1622 13.995 11.1551C12.7313 10.1622 11.1968 9.53031 9.57205 9.34978L11.2871 7.72501L10.0234 6.28077H7.22516L5.96144 7.72501L7.67648 9.34978C1.1774 10.0719 -2.16241 17.4736 1.53846 22.7993C4.42694 26.9515 10.1136 27.7639 13.995 24.6948C17.1543 27.2223 21.7578 27.132 24.9171 24.6046C30.6941 19.7303 27.8959 10.1622 20.3136 9.34978ZM10.7455 4.29494L11.4676 3.93388L10.3844 1.58699L9.66231 1.94805L10.7455 4.29494ZM17.2446 4.29494L18.3278 1.94805L17.6056 1.58699L16.5225 3.93388L17.2446 4.29494ZM13.634 3.48255H14.4464V0.864868H13.634V3.48255ZM17.8764 7.63475L18.3278 7.09316H20.4039L20.8552 7.63475L19.4109 9.16925L17.8764 7.63475ZM7.13489 7.63475L7.58622 7.09316H9.66231L10.1136 7.63475L8.57913 9.16925L7.13489 7.63475ZM2.26058 22.4382C-1.35002 17.3834 2.26058 10.1622 8.57913 10.1622C14.6269 10.1622 18.5083 16.932 15.1685 22.1674C14.8977 21.8966 14.7172 21.6258 14.5366 21.355C17.1543 16.7515 13.8145 11.1551 8.57913 11.1551C3.07296 11.1551 -0.0863138 17.3834 3.07296 21.8064C5.23932 24.9656 9.66231 25.6878 12.7313 23.3409C12.9119 23.6117 13.0924 23.8825 13.3632 24.063C9.84284 26.7709 4.87826 26.0488 2.26058 22.4382ZM15.8003 13.1409C16.8835 12.4188 18.057 11.9675 19.4109 11.9675C25.0976 11.9675 27.4445 19.1887 23.0215 22.6187C20.9454 24.2435 17.9667 24.3338 15.8003 22.709C17.6959 19.8205 17.6959 16.0294 15.8003 13.1409ZM13.995 20.4524C13.2729 18.8276 13.2729 17.0223 13.995 15.3975C14.8074 17.0223 14.8074 18.8276 13.995 20.4524ZM12.1897 13.1409C10.2942 16.0294 10.2942 19.8205 12.1897 22.709C9.48178 24.6948 5.78091 24.063 3.79508 21.355C0.996867 17.4736 3.79508 11.9675 8.57913 11.9675C9.93311 11.9675 11.1968 12.4188 12.1897 13.1409ZM14.2658 23.7922C13.8145 23.4311 13.4534 22.9798 13.0924 22.5285C11.1968 19.9108 11.1066 16.3905 12.8216 13.6825C13.0924 13.9533 13.3632 14.2241 13.5437 14.4949C9.75258 20.994 17.6959 27.9444 23.5631 23.2506C28.618 19.2789 25.8198 11.1551 19.4109 11.1551C17.9667 11.1551 16.5225 11.6064 15.349 12.5091C15.0782 12.2383 14.8977 11.9675 14.6269 11.7869C15.9809 10.7038 17.6959 10.1622 19.4109 10.1622C26.7224 10.1622 29.9719 19.3692 24.2852 23.9727C21.3968 26.3196 17.1543 26.3196 14.2658 23.7922Z" fill="#8FD16C"/>
</svg>
