<svg width="26" height="26" viewBox="0 0 26 26" fill="none" xmlns="http://www.w3.org/2000/svg">
<path d="M6.9571 16.3634C7.1999 16.2234 7.28301 15.9125 7.14297 15.6697C7.00272 15.4271 6.69209 15.3438 6.44929 15.4839C6.20649 15.6241 6.12318 15.935 6.26342 16.1776C6.40347 16.4204 6.7143 16.5037 6.9571 16.3634Z" fill="#8FD16C"/>
<path d="M4.8742 19.8684L7.43151 24.298C7.98336 25.255 9.22472 25.6092 10.2064 25.0417C11.1778 24.4803 11.5117 23.2392 10.9497 22.267L9.42626 19.628L10.7456 18.8662C10.9884 18.7258 11.0717 18.4154 10.9314 18.1726L10.2711 17.0288C10.3498 17.0135 10.8676 16.912 19.9977 15.1209C21.1264 15.0596 21.8026 13.8252 21.2325 12.8383L19.5448 9.91525L20.6233 8.28172C20.7293 8.12105 20.7356 7.91455 20.6394 7.74792L19.6238 5.98883C19.5276 5.8222 19.3449 5.72461 19.1535 5.73592L17.1998 5.85315L15.3262 2.60791C15.0548 2.13779 14.5687 1.85313 14.0259 1.84639C14.0194 1.84619 14.013 1.84619 14.0065 1.84619C13.482 1.84619 13.0059 2.10724 12.7239 2.5486L6.09017 10.9993L1.77753 13.4892C0.0813212 14.4681 -0.506234 16.6442 0.476463 18.3449C1.37426 19.9001 3.26705 20.5119 4.8742 19.8684ZM10.0704 22.775C10.3508 23.2602 10.1848 23.8811 9.69822 24.1622C9.21004 24.4444 8.58837 24.2711 8.31106 23.7904L5.772 19.3921L7.53109 18.3765C10.4697 23.4669 10.0231 22.6935 10.0704 22.775ZM8.91845 18.7482L8.41064 17.8687L9.29018 17.3609L9.798 18.2404L8.91845 18.7482ZM18.9011 6.7684L19.6029 7.98398L18.9771 8.93176L17.7675 6.83644L18.9011 6.7684ZM13.5733 3.10541C13.7095 2.88245 13.9258 2.85944 14.0134 2.86182C14.1001 2.86281 14.3161 2.88979 14.4465 3.11552L20.353 13.3462C20.5454 13.6792 20.3115 14.098 19.9257 14.1075C19.8565 14.1091 19.8245 14.1216 19.6472 14.1547L13.3993 3.33293C13.5304 3.16432 13.5473 3.14806 13.5733 3.10541ZM12.7235 4.19383L18.5937 14.3614L9.73432 16.0991L7.04053 11.4333L12.7235 4.19383ZM1.35601 17.8371C1.13305 17.4513 1.01522 17.0133 1.01522 16.5702C1.01522 15.6644 1.50201 14.821 2.28535 14.3687L6.24331 12.0836L8.78237 16.4813L4.82441 18.7667C3.61181 19.4665 2.05604 19.0495 1.35601 17.8371Z" fill="#8FD16C"/>
<path d="M5.38253 16.6854C5.24229 16.4426 4.93165 16.3593 4.68885 16.4995L3.8093 17.0073C3.5669 17.1474 3.25567 17.0639 3.11562 16.8215C2.97538 16.5787 2.66474 16.4953 2.42194 16.6356C2.17915 16.7758 2.09583 17.0865 2.23608 17.3293C2.65403 18.0533 3.58634 18.3086 4.31712 17.8869L5.19666 17.3791C5.43946 17.2388 5.52277 16.9284 5.38253 16.6854Z" fill="#8FD16C"/>
<path d="M25.245 2.93241L22.4153 4.50702C22.1703 4.6435 22.082 4.95275 22.2185 5.19773C22.3546 5.44251 22.6636 5.53118 22.9092 5.39451L25.7387 3.81989C25.9839 3.68342 26.0719 3.37417 25.9355 3.12919C25.7992 2.88401 25.4899 2.79593 25.245 2.93241Z" fill="#8FD16C"/>
<path d="M24.9492 8.19191L22.9872 7.66624C22.7162 7.59364 22.4377 7.75432 22.3651 8.02528C22.2925 8.29625 22.4534 8.57455 22.7243 8.64716L24.6865 9.17282C24.9591 9.24602 25.2362 9.08276 25.3084 8.81378C25.381 8.54282 25.2201 8.26431 24.9492 8.19191Z" fill="#8FD16C"/>
<path d="M20.0183 1.08742L19.4921 3.04964C19.4194 3.3206 19.5801 3.59891 19.8511 3.67171C20.1219 3.74411 20.4004 3.58383 20.4732 3.31267L20.9992 1.35045C21.0718 1.07948 20.9111 0.80098 20.6402 0.728379C20.3694 0.655777 20.0909 0.816452 20.0183 1.08742Z" fill="#8FD16C"/>
</svg>
