<svg width="24" height="21" viewBox="0 0 24 21" fill="none" xmlns="http://www.w3.org/2000/svg">
<g clip-path="url(#clip0)">
<path d="M23.9075 4.99592L19.9075 0.152684C19.8315 0.0610692 19.7191 0.0078125 19.6003 0.0078125H4.40024C4.28146 0.0078125 4.16905 0.0606908 4.09302 0.152684L0.0930394 4.99592C-0.00656994 5.1162 -0.0281793 5.28368 0.0378207 5.42534C0.103821 5.56699 0.245008 5.6578 0.400211 5.6578H23.6002C23.7554 5.6578 23.8966 5.56699 23.9626 5.42534C24.0283 5.28411 24.0071 5.11658 23.9075 4.99592ZM1.25427 4.85063L4.58746 0.814609H19.4127L22.7459 4.85063H1.25427Z" fill="black"/>
<path d="M12.3698 0.255856C12.3078 0.104931 12.1618 0.00683594 12.0002 0.00683594H4.40017C4.25697 0.00683594 4.12497 0.0839306 4.05339 0.209458C3.98181 0.334985 3.98219 0.488748 4.05461 0.613849L6.8546 5.45709C6.91699 5.56484 7.02541 5.63791 7.1486 5.65404C7.1658 5.65607 7.183 5.65725 7.19978 5.65725C7.30539 5.65725 7.40739 5.6153 7.483 5.53901L12.283 0.695768C12.3974 0.580363 12.4318 0.406782 12.3698 0.255856ZM7.28378 4.59822L5.09617 0.814059H11.0342L7.28378 4.59822Z" fill="black"/>
<path d="M23.9581 5.07441C23.8909 4.93678 23.7517 4.84961 23.5997 4.84961H0.399733C0.247717 4.84961 0.10892 4.93678 0.0413265 5.07441C-0.0258922 5.21205 -0.0102828 5.37631 0.0821078 5.4982L11.6821 20.8351C11.7577 20.9352 11.8753 20.9942 12.0001 20.9942C12.1249 20.9942 12.2425 20.9352 12.3173 20.8351L23.9173 5.4982C24.0097 5.37631 24.0253 5.21205 23.9581 5.07441ZM12.0001 19.9254L1.20851 5.65726H22.7917L12.0001 19.9254Z" fill="black"/>
<path d="M12.3814 20.4687L7.58136 5.13174C7.52858 4.96383 7.37455 4.84961 7.19975 4.84961H0.399733C0.247717 4.84961 0.10892 4.93678 0.0413265 5.07441C-0.0258922 5.21205 -0.0102828 5.37631 0.0821078 5.4982L11.6821 20.8351C11.7597 20.9381 11.8785 20.9942 12.0001 20.9942C12.0625 20.9942 12.1257 20.9796 12.1841 20.9481C12.3566 20.8582 12.4397 20.6556 12.3814 20.4687ZM1.20814 5.65726H6.90655L10.9289 18.5096L1.20814 5.65726Z" fill="black"/>
<path d="M19.9465 0.209458C19.8753 0.0839306 19.7429 0.00683594 19.5997 0.00683594H11.9997C11.8381 0.00683594 11.6921 0.104931 11.6301 0.255856C11.5681 0.406782 11.6025 0.580363 11.7169 0.695768L16.5169 5.53901C16.5921 5.6153 16.6941 5.65725 16.7997 5.65725C16.8169 5.65725 16.8341 5.65603 16.8513 5.65404C16.9741 5.63791 17.0829 5.56526 17.1453 5.45709L19.9453 0.613849C20.0173 0.488748 20.0177 0.334985 19.9465 0.209458ZM16.7157 4.59822L12.9653 0.814059H18.9033L16.7157 4.59822Z" fill="black"/>
<path d="M23.9582 5.07539C23.891 4.93775 23.7518 4.85059 23.5998 4.85059H16.7998C16.625 4.85059 16.4706 4.96481 16.4182 5.13271L11.6182 20.4697C11.5598 20.6561 11.643 20.8587 11.8154 20.9492C11.8738 20.9798 11.937 20.9944 11.9994 20.9944C12.1206 20.9944 12.2394 20.9383 12.3174 20.8362L23.9174 5.49922C24.0098 5.37724 24.0254 5.21298 23.9582 5.07539ZM13.0702 18.5097L17.0926 5.65734H22.791L13.0702 18.5097Z" fill="black"/>
</g>
<defs>
<clipPath id="clip0">
<rect width="24" height="21" fill="white"/>
</clipPath>
</defs>
</svg>
