<svg width="84" height="58" viewBox="0 0 84 58" fill="none" xmlns="http://www.w3.org/2000/svg">
<path d="M83.6906 15.1975C83.6906 11.8293 80.9606 9.09029 77.6046 9.09029C74.2485 9.09029 71.5174 11.8293 71.5174 15.1975C71.5174 16.1182 71.7279 16.9894 72.093 17.7737L60.4746 28.1797L46.6514 11.8876C47.7412 10.6655 48.41 9.05839 48.41 7.29289C48.41 3.48249 45.3215 0.383789 41.5236 0.383789C37.7268 0.383789 34.6383 3.48249 34.6383 7.29289C34.6383 9.05729 35.3071 10.6644 36.3969 11.8876L22.8796 27.8134L11.7787 17.8694C12.1635 17.0675 12.3861 16.1743 12.3861 15.2283C12.3861 11.8601 9.65606 9.12109 6.30002 9.12109C2.94399 9.12109 0.212891 11.8601 0.212891 15.2283C0.212891 18.3996 2.63371 21.011 5.71894 21.3058L10.4115 46.2582C10.4422 46.421 10.508 46.5695 10.5825 46.7114V55.9668C10.5825 56.8776 11.3182 57.6168 12.2271 57.6168H71.5372C72.4461 57.6168 73.1817 56.8776 73.1817 55.9668V46.7114C73.2552 46.5695 73.3221 46.421 73.3517 46.2582L78.0179 21.2805C81.181 21.0671 83.6906 18.4238 83.6906 15.1975ZM41.5225 3.68379C43.507 3.68379 45.1197 5.30299 45.1197 7.29289C45.1197 9.28279 43.5059 10.9009 41.5225 10.9009C39.5391 10.9009 37.9264 9.28169 37.9264 7.29289C37.9264 5.30299 39.5402 3.68379 41.5225 3.68379ZM3.50205 15.2283C3.50205 13.6806 4.75741 12.4211 6.30002 12.4211C7.84264 12.4211 9.0969 13.6806 9.0969 15.2283C9.0969 16.776 7.84154 18.0355 6.30002 18.0355C4.75741 18.0355 3.50205 16.776 3.50205 15.2283ZM13.8717 54.3179V47.6035H69.8926V54.3179H13.8717ZM70.3717 44.3035H13.3936L8.98398 20.7019C9.19887 20.5952 9.40828 20.4786 9.60782 20.3488L21.9454 31.4005C22.2766 31.6975 22.7118 31.8581 23.1537 31.8152C23.5955 31.7855 24.0067 31.5787 24.2939 31.2399L39.1269 13.762C39.8757 14.0414 40.6805 14.202 41.5247 14.202C42.37 14.202 43.1759 14.0414 43.9236 13.762L58.5834 31.0386C58.8147 31.3092 59.125 31.4984 59.4725 31.5776L60.3639 31.78C60.8792 31.8955 61.4263 31.758 61.8232 31.4016L74.2387 20.2795C74.4196 20.3994 74.6081 20.5094 74.8011 20.6106L70.3717 44.3035ZM77.6057 18.0025C76.063 18.0025 74.8077 16.743 74.8077 15.1964C74.8077 13.6487 76.063 12.3892 77.6057 12.3892C79.1472 12.3892 80.4025 13.6487 80.4025 15.1964C80.4014 16.7441 79.1472 18.0025 77.6057 18.0025Z" fill="#BBBBBB"/>
</svg>
