<svg width="25" height="17" viewBox="0 0 25 17" fill="none" xmlns="http://www.w3.org/2000/svg">
<path d="M2.32558 0C1.04727 0 0 1.02072 0 2.26667V14.7333C0 15.9793 1.04727 17 2.32558 17H22.6744C23.9527 17 25 15.9793 25 14.7333V2.26667C25 1.02072 23.9527 0 22.6744 0H2.32558ZM2.32558 1.13333H22.6744C22.8348 1.13333 22.982 1.16749 23.1195 1.22187L13.3721 9.26146C12.8261 9.7123 12.1548 9.71233 11.6097 9.26146L1.88046 1.22187C2.01799 1.16749 2.16517 1.13333 2.32558 1.13333ZM23.819 2.11615C23.8257 2.16619 23.8371 2.21454 23.8371 2.26667V14.7333C23.8371 15.371 23.3285 15.8667 22.6743 15.8667H2.32544C1.67119 15.8667 1.16265 15.371 1.16265 14.7333V2.26667C1.16265 2.21756 1.17485 2.17226 1.18067 2.125L10.8555 10.1292C11.8005 10.9109 13.1805 10.9097 14.1258 10.1292L23.8187 2.11615H23.819Z" fill="black"/>
</svg>
