<svg width="18" height="18" viewBox="0 0 18 18" fill="none" xmlns="http://www.w3.org/2000/svg">
<g clip-path="url(#clip0)">
<path d="M17.8899 0.110298C17.7437 -0.0359521 17.5059 -0.0359521 17.3596 0.110298L6.85969 10.6103C6.71344 10.7565 6.71344 10.9943 6.85969 11.1405C6.9332 11.2133 7.02918 11.2501 7.12519 11.2501C7.2212 11.2501 7.31717 11.2133 7.38995 11.1405L17.8899 0.640558C18.0362 0.494309 18.0362 0.256547 17.8899 0.110298Z" fill="black"/>
<path d="M17.8897 0.110296C17.7772 -0.00220331 17.6069 -0.0321915 17.4629 0.0367848L0.213002 8.28677C0.0757519 8.35202 -0.0090097 8.49528 0.000763723 8.64828C0.010502 8.80054 0.111752 8.93252 0.256525 8.98054L6.82876 11.1713L9.01952 17.7435C9.06751 17.889 9.19952 17.9895 9.35178 17.9993C9.35927 18 9.36753 18 9.37502 18C9.51828 18 9.65026 17.9183 9.71326 17.787L17.9632 0.537057C18.0315 0.393795 18.0022 0.222796 17.8897 0.110296ZM9.43647 16.6252L7.48049 10.7558C7.44375 10.644 7.35523 10.5562 7.2435 10.5188L1.37396 8.56278L16.827 1.17155L9.43647 16.6252Z" fill="black"/>
</g>
<defs>
<clipPath id="clip0">
<rect width="18" height="18" fill="white"/>
</clipPath>
</defs>
</svg>
