<svg width="20" height="20" viewBox="0 0 20 20" fill="none" xmlns="http://www.w3.org/2000/svg">
<g clip-path="url(#clip0)">
<path d="M16.1273 19.1999H15.206C15.1064 16.1479 13.874 13.2925 11.7043 11.1231L10.5813 9.99995L11.7043 8.87698C13.874 6.70759 15.1064 3.85222 15.206 0.799976H16.1273C16.3483 0.799976 16.5274 0.621045 16.5274 0.400073C16.5274 0.178931 16.3483 0 16.1273 0H3.90398C3.68301 0 3.50391 0.178931 3.50391 0.400073C3.50391 0.621045 3.68301 0.799976 3.90398 0.799976H4.82546C4.92493 3.85222 6.15745 6.70759 8.327 8.87698L9.44998 9.99995L8.327 11.1231C6.15745 13.2925 4.92493 16.1479 4.82546 19.1999H3.90398C3.68301 19.1999 3.50391 19.3789 3.50391 19.6C3.50391 19.8211 3.68301 20.0001 3.90398 20.0001H16.1273C16.3483 20.0001 16.5274 19.8211 16.5274 19.6C16.5274 19.3789 16.3483 19.1999 16.1273 19.1999ZM5.62544 0.799976H14.4059C14.3067 3.6386 13.1571 6.29299 11.1388 8.3113L10.0156 9.43445L8.89268 8.3113C6.87419 6.29299 5.72456 3.6386 5.62544 0.799976ZM8.89268 11.6886L10.0156 10.5656L11.1388 11.6886C13.1571 13.7069 14.3067 16.3615 14.4059 19.1999H5.62544C5.72456 16.3615 6.87419 13.7069 8.89268 11.6886Z" fill="black"/>
</g>
<defs>
<clipPath id="clip0">
<rect width="20" height="20" fill="white"/>
</clipPath>
</defs>
</svg>
