<svg width="18" height="20" viewBox="0 0 18 20" fill="none" xmlns="http://www.w3.org/2000/svg">
<path d="M12.1826 3.77454L12.3355 3.68532L12.3022 3.51144C12.2696 3.34203 12.25 3.17194 12.25 3C12.25 1.49306 13.4931 0.25 15 0.25C16.5069 0.25 17.75 1.49306 17.75 3C17.75 4.50694 16.5069 5.75 15 5.75C14.333 5.75 13.7225 5.49711 13.2396 5.08846L13.1048 4.97433L12.9522 5.06335L5.81739 9.22546L5.66445 9.31468L5.69785 9.48855C5.73038 9.65797 5.75 9.82806 5.75 10C5.75 10.1719 5.73038 10.342 5.69785 10.5114L5.66446 10.6853L5.81734 10.7745L12.9521 14.9386L13.1048 15.0277L13.2397 14.9134C13.723 14.5041 14.3329 14.25 15 14.25C16.5069 14.25 17.75 15.4931 17.75 17C17.75 18.5069 16.5069 19.75 15 19.75C13.4931 19.75 12.25 18.5069 12.25 17C12.25 16.8272 12.2694 16.6563 12.3021 16.4868L12.3357 16.3127L12.1826 16.2235L5.0478 12.0633L4.89522 11.9744L4.76038 12.0885C4.27746 12.4971 3.66703 12.75 3 12.75C1.49306 12.75 0.25 11.5069 0.25 10C0.25 8.49306 1.49306 7.25 3 7.25C3.66703 7.25 4.27746 7.50289 4.76038 7.91154L4.89525 8.02567L5.04785 7.93665L12.1826 3.77454ZM16.25 3C16.25 2.2978 15.7022 1.75 15 1.75C14.2978 1.75 13.75 2.2978 13.75 3C13.75 3.7022 14.2978 4.25 15 4.25C15.7022 4.25 16.25 3.7022 16.25 3ZM4.25 10C4.25 9.2978 3.7022 8.75 3 8.75C2.2978 8.75 1.75 9.2978 1.75 10C1.75 10.7022 2.2978 11.25 3 11.25C3.7022 11.25 4.25 10.7022 4.25 10ZM16.25 17C16.25 16.2978 15.7022 15.75 15 15.75C14.2978 15.75 13.75 16.2978 13.75 17C13.75 17.7022 14.2978 18.25 15 18.25C15.7022 18.25 16.25 17.7022 16.25 17Z" fill="black" stroke="white" stroke-width="0.5"/>
</svg>
