<svg width="18" height="18" viewBox="0 0 18 18" fill="none" xmlns="http://www.w3.org/2000/svg">
<path d="M12.2117 5.51613C11.6855 2.2754 10.4444 0 9 0C7.55564 0 6.31452 2.2754 5.78831 5.51613H12.2117ZM5.51613 9C5.51613 9.80564 5.55968 10.5786 5.63589 11.3226H12.3605C12.4367 10.5786 12.4802 9.80564 12.4802 9C12.4802 8.19436 12.4367 7.42137 12.3605 6.67742H5.63589C5.55968 7.42137 5.51613 8.19436 5.51613 9ZM17.2996 5.51613C16.2617 3.05202 14.1605 1.14677 11.5657 0.377419C12.4512 1.60403 13.0609 3.45121 13.3802 5.51613H17.2996ZM6.43064 0.377419C3.83952 1.14677 1.73468 3.05202 0.700403 5.51613H4.61976C4.93548 3.45121 5.54516 1.60403 6.43064 0.377419ZM17.6879 6.67742H13.5254C13.6016 7.43952 13.6452 8.21976 13.6452 9C13.6452 9.78024 13.6016 10.5605 13.5254 11.3226H17.6843C17.8839 10.5786 17.9964 9.80564 17.9964 9C17.9964 8.19436 17.8839 7.42137 17.6879 6.67742ZM4.35484 9C4.35484 8.21976 4.39839 7.43952 4.4746 6.67742H0.312097C0.116129 7.42137 0 8.19436 0 9C0 9.80564 0.116129 10.5786 0.312097 11.3226H4.47097C4.39839 10.5605 4.35484 9.78024 4.35484 9ZM5.78831 12.4839C6.31452 15.7246 7.55564 18 9 18C10.4444 18 11.6855 15.7246 12.2117 12.4839H5.78831ZM11.5694 17.6226C14.1605 16.8532 16.2653 14.948 17.3032 12.4839H13.3839C13.0645 14.5488 12.4548 16.396 11.5694 17.6226ZM0.700403 12.4839C1.73831 14.948 3.83952 16.8532 6.43427 17.6226C5.54879 16.396 4.93911 14.5488 4.61976 12.4839H0.700403Z" fill="black"/>
</svg>
