<svg width="71" height="71" viewBox="0 0 71 71" fill="none" xmlns="http://www.w3.org/2000/svg">
<path d="M3.32045 70.8855L11.6801 62.5258L20.0398 70.8855L23.2463 67.679L14.8866 59.3194L25.6511 48.5548C30.5753 52.5629 36.7592 54.9677 43.5156 54.9677C58.6317 54.9677 70.9995 42.6 70.9995 27.4839C70.9995 12.3677 58.6317 0 43.5156 0C28.3995 0 16.0317 12.3677 16.0317 27.4839C16.0317 34.2403 18.4366 40.4242 22.5592 45.2339L11.7946 55.9984L3.43497 47.6387L0.228516 50.8452L8.58819 59.2048L0.228516 67.5645L3.32045 70.8855ZM20.6124 27.4839C20.6124 14.8871 30.9188 4.58065 43.5156 4.58065C56.1124 4.58065 66.4188 14.8871 66.4188 27.4839C66.4188 40.0806 56.1124 50.3871 43.5156 50.3871C30.9188 50.3871 20.6124 40.0806 20.6124 27.4839Z" fill="#BBBBBB"/>
</svg>
