<svg width="86" height="101" viewBox="0 0 86 101" fill="none" xmlns="http://www.w3.org/2000/svg">
<g clip-path="url(#clip0)">
<path d="M28.1706 11.8389L37.5255 20.3823C27.999 21.9439 19.3746 26.8978 13.3059 34.3183C7.06109 41.9541 3.98632 51.6348 4.70183 61.4125C5.41734 71.1902 9.86982 80.3371 17.1614 87.0134C24.4528 93.6895 34.0422 97.4 44 97.4C53.9578 97.4 63.5472 93.6895 70.8386 87.0134C78.1302 80.3371 82.5827 71.1902 83.2982 61.4125C84.0137 51.6348 80.9389 41.9541 74.6941 34.3183C68.6255 26.8979 60.0012 21.944 50.4748 20.3823L59.8295 11.8389L59.83 11.8385C60.1413 11.5532 60.3343 11.1625 60.3692 10.7424C60.4041 10.3224 60.2781 9.90547 60.0175 9.5735L60.0172 9.57318L52.6807 0.249064L52.6804 0.248747C52.5207 0.0462325 52.3166 -0.117155 52.0838 -0.229394C51.8511 -0.341623 51.5957 -0.399883 51.3371 -0.4H51.3369L36.6644 -0.4L36.6642 -0.4C36.4056 -0.399921 36.1502 -0.341673 35.9175 -0.229433C35.6847 -0.117183 35.4805 0.046236 35.3209 0.248793L35.3207 0.249037L27.9828 9.57315L27.9825 9.5735C27.7219 9.90547 27.5959 10.3224 27.6308 10.7424C27.6657 11.1625 27.8587 11.5532 28.17 11.8385L28.1706 11.8389ZM48.3247 17.7674L50.6776 12.2925H54.3191L48.3247 17.7674ZM44.0004 19.2271L41.0198 12.292H46.981L44.0004 19.2271ZM47.659 2.9608H50.5047L55.2026 8.93167H50.664L47.659 2.9608ZM46.8636 8.93167H41.1372L44.0006 3.24326L46.8636 8.93167ZM32.7986 8.93167L37.496 2.9608H40.342L37.3372 8.93167H32.7986ZM37.3242 12.2925L39.6782 17.7699L33.6803 12.2925H37.3242ZM44.0003 94.0356C34.632 94.037 25.6333 90.4454 18.9148 84.0253C12.1964 77.6054 8.28719 68.8631 8.01509 59.6551C7.743 50.4472 11.1294 41.4964 17.4571 34.7035C23.7824 27.9132 32.549 23.8138 41.8973 23.277H46.1037C55.452 23.8138 64.2187 27.9132 70.544 34.7036C76.8717 41.4965 80.2581 50.4473 79.9859 59.6552C79.7138 68.8632 75.8045 77.6055 69.0861 84.0254C62.3675 90.4455 53.3688 94.0371 44.0005 94.0356L44.0004 94.4356L44.0003 94.0356Z" fill="#BBBBBB" stroke="#BBBBBB" stroke-width="0.8"/>
</g>
<defs>
<clipPath id="clip0">
<rect width="86" height="101" fill="white"/>
</clipPath>
</defs>
</svg>
