<svg width="21" height="18" viewBox="0 0 21 18" fill="none" xmlns="http://www.w3.org/2000/svg">
<g clip-path="url(#clip0)">
<path d="M20.919 4.28138L17.419 0.130035C17.3526 0.051508 17.2542 0.00585938 17.1502 0.00585938H3.85021C3.74628 0.00585938 3.64792 0.0511837 3.5814 0.130035L0.0814095 4.28138C-0.0057487 4.38448 -0.0246569 4.52803 0.0330931 4.64945C0.0908431 4.77087 0.214382 4.84871 0.350185 4.84871H20.6502C20.786 4.84871 20.9095 4.77087 20.9673 4.64945C21.0247 4.5284 21.0062 4.3848 20.919 4.28138ZM1.09749 4.15684L4.01403 0.697399H16.9861L19.9026 4.15684H1.09749Z" fill="black"/>
<path d="M10.8235 0.219305C10.7693 0.0899404 10.6416 0.00585938 10.5001 0.00585938H3.85015C3.72485 0.00585938 3.60935 0.0719405 3.54672 0.179535C3.48409 0.28713 3.48442 0.418927 3.54778 0.526157L5.99777 4.67751C6.05236 4.76986 6.14723 4.83249 6.25502 4.84632C6.27007 4.84806 6.28513 4.84908 6.29981 4.84908C6.39222 4.84908 6.48147 4.81312 6.54763 4.74772L10.7476 0.596373C10.8477 0.497454 10.8778 0.34867 10.8235 0.219305ZM6.37331 3.94133L4.45915 0.697765H9.65489L6.37331 3.94133Z" fill="black"/>
<path d="M20.9634 4.34894C20.9045 4.23097 20.7828 4.15625 20.6497 4.15625H0.349766C0.216752 4.15625 0.0953052 4.23097 0.0361607 4.34894C-0.0226557 4.46691 -0.00899749 4.60771 0.0718443 4.71218L10.2219 17.8581C10.288 17.9439 10.3909 17.9944 10.5001 17.9944C10.6093 17.9944 10.7122 17.9439 10.7777 17.8581L20.9277 4.71218C21.0085 4.60771 21.0221 4.46691 20.9634 4.34894ZM10.5001 17.0784L1.05745 4.84852H19.9428L10.5001 17.0784Z" fill="black"/>
<path d="M10.8337 17.544L6.63369 4.39807C6.5875 4.25416 6.45273 4.15625 6.29978 4.15625H0.349766C0.216753 4.15625 0.0953052 4.23097 0.0361607 4.34894C-0.0226557 4.46691 -0.00899749 4.60771 0.0718443 4.71218L10.2219 17.8581C10.2897 17.9464 10.3937 17.9944 10.5001 17.9944C10.5547 17.9944 10.61 17.982 10.6611 17.955C10.812 17.8779 10.8848 17.7042 10.8337 17.544ZM1.05712 4.84852H6.04323L9.56282 15.8648L1.05712 4.84852Z" fill="black"/>
<path d="M17.4539 0.179535C17.3916 0.0719405 17.2758 0.00585938 17.1505 0.00585938H10.5005C10.3591 0.00585938 10.2313 0.0899404 10.1771 0.219305C10.1228 0.34867 10.1529 0.497454 10.253 0.596373L14.453 4.74772C14.5188 4.81312 14.6081 4.84908 14.7005 4.84908C14.7155 4.84908 14.7306 4.84802 14.7456 4.84632C14.8531 4.83249 14.9483 4.77022 15.0029 4.67751L17.4529 0.526157C17.5159 0.418927 17.5162 0.28713 17.4539 0.179535ZM14.627 3.94133L11.3454 0.697765H16.5411L14.627 3.94133Z" fill="black"/>
<path d="M20.9642 4.34992C20.9053 4.23194 20.7836 4.15723 20.6505 4.15723H14.7005C14.5476 4.15723 14.4125 4.25513 14.3666 4.39905L10.1666 17.545C10.1155 17.7048 10.1883 17.8785 10.3392 17.956C10.3903 17.9823 10.4456 17.9948 10.5002 17.9948C10.6062 17.9948 10.7102 17.9467 10.7784 17.8592L20.9284 4.7132C21.0093 4.60865 21.0229 4.46785 20.9642 4.34992ZM11.4372 15.865L14.9568 4.84873H19.9429L11.4372 15.865Z" fill="black"/>
</g>
<defs>
<clipPath id="clip0">
<rect width="21" height="18" fill="white"/>
</clipPath>
</defs>
</svg>
