<svg width="13" height="13" viewBox="0 0 13 13" fill="none" xmlns="http://www.w3.org/2000/svg">
<path d="M6.5 0C2.91443 0 0 2.91442 0 6.5C0 10.0856 2.91443 13 6.5 13C10.0856 13 13 10.0856 13 6.5C13 2.91442 10.0856 0 6.5 0ZM6.5 0.722222C9.69526 0.722222 12.2778 3.30474 12.2778 6.5C12.2778 9.69526 9.69526 12.2778 6.5 12.2778C3.30474 12.2778 0.722222 9.69526 0.722222 6.5C0.722222 3.30474 3.30474 0.722222 6.5 0.722222ZM6.49436 3.06944C5.58545 3.07883 4.76028 3.66632 4.36719 4.5421C4.34253 4.58566 4.3272 4.63387 4.32216 4.68368C4.31713 4.73348 4.3225 4.78378 4.33794 4.8314C4.35338 4.87901 4.37855 4.9229 4.41186 4.96027C4.44516 4.99764 4.48587 5.02768 4.5314 5.04848C4.57693 5.06928 4.62628 5.0804 4.67633 5.08111C4.72638 5.08182 4.77604 5.07212 4.82214 5.05263C4.86824 5.03313 4.90979 5.00426 4.94415 4.96786C4.9785 4.93145 5.00491 4.8883 5.0217 4.84115C5.30772 4.20391 5.90756 3.80024 6.5 3.79167C6.50209 3.79168 6.50356 3.79165 6.50564 3.79167C7.02981 3.79667 7.43188 3.95221 7.70182 4.19792C7.97284 4.4446 8.125 4.78555 8.125 5.23611C8.125 5.47041 8.04701 5.65258 7.89366 5.85677C7.74032 6.06097 7.50829 6.26914 7.26172 6.48872C6.76857 6.92786 6.15625 7.45436 6.13889 8.29427C6.13769 8.34174 6.14587 8.38898 6.16295 8.43329C6.18004 8.4776 6.20569 8.51811 6.23844 8.55249C6.27119 8.58687 6.31041 8.61446 6.35383 8.63368C6.39726 8.65289 6.44405 8.66335 6.49152 8.66447C6.539 8.66558 6.58622 8.65732 6.6305 8.64016C6.67478 8.623 6.71524 8.59728 6.74957 8.56447C6.7839 8.53166 6.81142 8.4924 6.83056 8.44894C6.8497 8.40548 6.86008 8.35867 6.86111 8.3112C6.87116 7.82498 7.24826 7.46944 7.74132 7.03038C7.98785 6.81084 8.25442 6.57721 8.46918 6.29123C8.68395 6.00518 8.84722 5.65178 8.84722 5.23611C8.84722 4.60941 8.60962 4.04651 8.18707 3.66189C7.76451 3.27727 7.1707 3.07428 6.5 3.06944C6.49812 3.06943 6.49624 3.06943 6.49436 3.06944ZM6.31944 9.20833C6.21942 9.20833 6.13889 9.28886 6.13889 9.38889V9.75C6.13889 9.85003 6.21942 9.93056 6.31944 9.93056H6.68056C6.78058 9.93056 6.86111 9.85003 6.86111 9.75V9.38889C6.86111 9.28886 6.78058 9.20833 6.68056 9.20833H6.31944Z" fill="black"/>
</svg>
