<svg width="22" height="20" viewBox="0 0 22 20" fill="none" xmlns="http://www.w3.org/2000/svg">
<path fill-rule="evenodd" clip-rule="evenodd" d="M10.9662 2.32831C11.6288 1.5799 12.9644 0.44873 14.9846 0.44873C17.6867 0.44873 19.5769 3.00901 19.5769 6.02197C19.5769 7.38558 19.1619 9.54936 17.1256 11.9469C20.114 12.5662 21.0337 14.4961 21.0337 15.6352C21.0337 16.3429 20.6704 16.9654 20.1241 17.4782C19.5786 17.9902 18.8163 18.4283 17.916 18.7857C16.1125 19.5017 13.6552 19.9334 10.9663 19.9334C8.27741 19.9334 5.82012 19.5017 4.01663 18.7857C3.11633 18.4283 2.35405 17.9902 1.80856 17.4782C1.27288 16.9754 0.913194 16.3672 0.899307 15.6767C0.808057 15.0527 0.981635 14.1819 1.69044 13.4194C2.30568 12.7576 3.29482 12.2065 4.7955 11.9335C2.769 9.54129 2.35556 7.38303 2.35556 6.02197C2.35556 3.07734 4.19142 0.44873 6.94791 0.44873C8.96809 0.44873 10.3037 1.57997 10.9662 2.32831ZM5.61674 12.8238C3.86978 13.0196 2.92003 13.5655 2.42286 14.1003C1.91166 14.6502 1.83773 15.2294 1.89199 15.5524L1.89889 15.5935V15.6352C1.89889 15.9764 2.07104 16.3531 2.49293 16.7491C2.91572 17.1459 3.55455 17.5263 4.38561 17.8562C6.04485 18.515 8.37127 18.9334 10.9663 18.9334C13.5613 18.9334 15.8878 18.515 17.547 17.8562C18.3781 17.5263 19.0169 17.1459 19.4397 16.7491C19.8616 16.3531 20.0337 15.9764 20.0337 15.6352C20.0337 14.9857 19.4198 13.2177 16.3141 12.8254C15.1036 14.0359 13.4602 15.2869 11.2376 16.5098C11.0681 16.6031 10.8643 16.603 10.6948 16.5098C8.4713 15.2864 6.82742 14.0348 5.61674 12.8238ZM3.50364 6.02197C3.50364 10.0819 7.48096 13.3561 10.9662 15.3212C14.4516 13.3561 18.4288 10.082 18.4288 6.02194C18.4288 3.78495 17.1221 1.62605 14.9846 1.62605C12.6635 1.62605 11.4666 3.56999 11.4547 3.58962C11.231 3.96138 10.7034 3.96176 10.4787 3.59121C9.8894 2.63822 8.5576 1.62609 6.94791 1.62609C4.82615 1.62609 3.50364 3.76353 3.50364 6.02197Z" fill="black"/>
</svg>
