<svg width="109" height="50" viewBox="0 0 109 50" fill="none" xmlns="http://www.w3.org/2000/svg">
<path fill-rule="evenodd" clip-rule="evenodd" d="M106.248 24.8377C106.248 12.4774 96.6116 2.32422 83.9092 2.32422C75.5868 2.32422 68.5786 7.18007 64.6364 13.8017C62.8844 17.3332 61.5703 20.8648 61.5703 24.8377C61.5703 37.6395 71.6447 47.3512 83.9092 47.3512C96.6116 47.3512 106.248 37.6395 106.248 24.8377Z" stroke="#BBBBBB" stroke-width="3.5"/>
<path fill-rule="evenodd" clip-rule="evenodd" d="M47.1161 24.8377C47.1161 12.9188 37.4797 2.76562 25.2153 2.76562C13.3888 2.76562 3.31445 12.9188 3.31445 24.8377C3.31445 37.1981 13.3888 46.9098 25.2153 46.9098C37.4797 46.9098 47.1161 37.1981 47.1161 24.8377Z" stroke="#BBBBBB" stroke-width="3.5"/>
<path d="M44.4883 14.243C47.9924 10.2701 53.6866 8.94573 58.5048 10.2701C60.6949 11.1529 62.885 12.0358 64.637 13.8016" stroke="#BBBBBB" stroke-width="3.5"/>
</svg>
