<svg width="77" height="81" viewBox="0 0 77 81" fill="none" xmlns="http://www.w3.org/2000/svg">
<path d="M69.76 22.4458H59.9222C62.3345 20.086 63.8289 16.8529 63.8289 13.2869V13.0625C63.8289 5.85933 57.7459 0 50.2678 0H50.0348C44.7056 0 40.0967 2.98431 37.882 7.30269C35.6702 4.64042 32.2762 2.92771 28.4697 2.92771H28.2671C21.6188 2.92771 16.2105 8.13708 16.2105 14.541V14.7361C16.2105 17.6961 17.3757 20.3925 19.2753 22.4458H7.24003C3.24818 22.4458 0 25.5745 0 29.4196V34.0132C0 37.1292 2.1327 39.773 5.06579 40.6649V74.0252C5.06579 77.8713 8.31397 81 12.3058 81H64.6932C68.686 81 71.9342 77.8713 71.9342 74.0262V40.6649C74.8673 39.773 77 37.1292 77 34.0132V29.4196C77 25.5745 73.7518 22.4458 69.76 22.4458ZM40.5263 13.0625C40.5263 8.01217 44.7917 3.90361 50.0348 3.90361H50.2678C55.5109 3.90361 59.7763 8.01217 59.7763 13.0625V13.2869C59.7763 18.3372 55.5109 22.4458 50.2678 22.4458H40.5263V14.541V13.0625ZM20.2632 14.7361V14.541C20.2632 10.2899 23.8538 6.83133 28.2671 6.83133H28.4697C32.883 6.83133 36.4737 10.2899 36.4737 14.541V22.4458H28.2671C23.8538 22.4458 20.2632 18.9872 20.2632 14.7361ZM4.05263 34.0141V29.4206C4.05263 27.7274 5.48321 26.3494 7.24003 26.3494H28.2671H36.4737V37.0843H7.24003C5.48321 37.0843 4.05263 35.7064 4.05263 34.0141ZM9.11842 74.0262V40.988H36.4737V77.0964H12.3058C10.549 77.0964 9.11842 75.7184 9.11842 74.0262ZM67.8816 74.0262C67.8816 75.7184 66.451 77.0964 64.6942 77.0964H40.5263V40.988H67.8816V74.0262ZM72.9474 34.0141C72.9474 35.7064 71.5168 37.0843 69.76 37.0843H40.5263V26.3494H50.2678H69.759C71.5168 26.3494 72.9474 27.7274 72.9474 29.4196V34.0141Z" fill="#BBBBBB"/>
</svg>
