<svg width="23" height="21" viewBox="0 0 23 21" fill="none" xmlns="http://www.w3.org/2000/svg">
<g clip-path="url(#clip0)">
<path fill-rule="evenodd" clip-rule="evenodd" d="M11.4895 2.16903C12.1743 1.39558 13.5545 0.226562 15.6423 0.226562C18.4349 0.226562 20.3883 2.87251 20.3883 5.98627C20.3883 7.39824 19.9578 9.64037 17.8427 12.1239C20.9312 12.7604 21.8771 14.7517 21.8771 15.9211C21.8771 16.6463 21.5048 17.2855 20.9422 17.8135C20.3805 18.3407 19.5948 18.7925 18.6656 19.1614C16.8041 19.9004 14.2668 20.3464 11.4895 20.3464C8.71224 20.3464 6.17493 19.9004 4.31351 19.1614C3.38425 18.7925 2.59853 18.3407 2.03684 17.8135C1.48502 17.2956 1.11632 16.6707 1.10242 15.9626C1.0085 15.3226 1.18614 14.4272 1.91558 13.6426C2.54963 12.9605 3.57116 12.3913 5.12478 12.1102C3.01973 9.63214 2.59077 7.39564 2.59077 5.98627C2.59077 2.94312 4.48805 0.226562 7.33677 0.226562C9.42454 0.226562 10.8049 1.39565 11.4895 2.16903ZM5.94587 13.0005C4.14624 13.2044 3.16405 13.7683 2.64799 14.3234C2.11612 14.8956 2.03819 15.4993 2.09511 15.8383L2.10202 15.8794V15.9211C2.10202 16.2798 2.28312 16.6732 2.72121 17.0844C3.1602 17.4964 3.82247 17.8905 4.68249 18.232C6.39966 18.9137 8.80611 19.3464 11.4895 19.3464C14.173 19.3464 16.5794 18.9137 18.2966 18.232C19.1566 17.8905 19.8189 17.4964 20.2579 17.0844C20.696 16.6732 20.8771 16.2798 20.8771 15.9211C20.8771 15.2412 20.2368 13.4119 17.0314 13.0023C15.7789 14.258 14.0761 15.5562 11.77 16.825C11.5948 16.9214 11.3841 16.9213 11.2091 16.825C8.90182 15.5555 7.19849 14.2567 5.94587 13.0005ZM3.77726 5.98627C3.77726 10.182 7.88766 13.5658 11.4895 15.5966C15.0915 13.5657 19.2018 10.1821 19.2018 5.98623C19.2018 3.6744 17.8514 1.44327 15.6423 1.44327C13.2436 1.44327 12.0066 3.45226 11.9944 3.47254C11.7631 3.85673 11.2179 3.85712 10.9857 3.47418C10.3767 2.48931 9.00032 1.44331 7.33677 1.44331C5.14402 1.44331 3.77726 3.65227 3.77726 5.98627Z" fill="#C9E4BB"/>
</g>
<defs>
<clipPath id="clip0">
<rect width="21.7525" height="20.6077" fill="white" transform="translate(0.613281 0.219971)"/>
</clipPath>
</defs>
</svg>
