<svg width="70" height="81" viewBox="0 0 70 81" fill="none" xmlns="http://www.w3.org/2000/svg">
<g clip-path="url(#clip0)">
<path d="M44.2313 14.0258L47.6438 9.86921C47.9176 9.50415 48.0651 9.06372 48.0651 8.61158C48.0651 8.15944 47.9176 7.71901 47.6438 7.35395L43.2688 0.95921C43.0812 0.68045 42.8291 0.448456 42.5328 0.281866C42.2365 0.115277 41.9042 0.0187362 41.5626 0H28.4376C28.0773 0.00181636 27.723 0.090326 27.4063 0.257665C27.0895 0.425003 26.8201 0.665988 26.622 0.95921L22.247 7.35395C21.9732 7.71901 21.8257 8.15944 21.8257 8.61158C21.8257 9.06372 21.9732 9.50415 22.247 9.86921L25.6595 14.0258C17.4837 16.2042 10.3969 21.1995 5.71499 28.0843C1.03307 34.9692 -0.925865 43.2756 0.201922 51.4614C1.32971 59.6472 5.46758 67.1561 11.8472 72.5938C18.2269 78.0316 26.4148 81.0287 34.8907 81.0287C43.3666 81.0287 51.5545 78.0316 57.9342 72.5938C64.3138 67.1561 68.4517 59.6472 69.5795 51.4614C70.7073 43.2756 68.7483 34.9692 64.0664 28.0843C59.3845 21.1995 52.2977 16.2042 44.122 14.0258H44.2313ZM26.7313 8.41974L29.6188 4.26316H40.3813L43.2251 8.52632L39.3751 13.0879C37.9242 12.903 36.4632 12.8034 35.0001 12.7895C33.5369 12.8034 32.076 12.903 30.6251 13.0879L26.7313 8.41974ZM35.0001 76.7368C28.943 76.7368 23.022 74.9866 17.9857 71.7075C12.9495 68.4284 9.02421 63.7677 6.70627 58.3148C4.38834 52.8619 3.78186 46.8616 4.96354 41.0728C6.14521 35.284 9.06196 29.9667 13.3449 25.7932C17.6279 21.6197 23.0848 18.7775 29.0254 17.626C34.9661 16.4746 41.1238 17.0655 46.7198 19.3242C52.3158 21.5829 57.0987 25.4078 60.4638 30.3154C63.829 35.2229 65.6251 40.9925 65.6251 46.8947C65.6251 54.8094 62.3985 62.3998 56.6552 67.9963C50.9119 73.5928 43.1223 76.7368 35.0001 76.7368Z" fill="#BBBBBB"/>
</g>
<defs>
<clipPath id="clip0">
<rect width="70" height="81" fill="white"/>
</clipPath>
</defs>
</svg>
