<svg width="17" height="17" viewBox="0 0 17 17" fill="none" xmlns="http://www.w3.org/2000/svg">
<path fill-rule="evenodd" clip-rule="evenodd" d="M11.5749 6.28745C11.5749 9.20763 9.20763 11.5749 6.28745 11.5749C3.36727 11.5749 1 9.20763 1 6.28745C1 3.36727 3.36727 1 6.28745 1C9.20763 1 11.5749 3.36727 11.5749 6.28745ZM10.3658 11.0729C9.26787 12.0095 7.84369 12.5749 6.28745 12.5749C2.81499 12.5749 0 9.75992 0 6.28745C0 2.81499 2.81499 0 6.28745 0C9.75992 0 12.5749 2.81499 12.5749 6.28745C12.5749 7.84371 12.0095 9.2679 11.0729 10.3658L16.0722 15.3651L15.3651 16.0722L10.3658 11.0729Z" fill="black"/>
</svg>
