<svg width="25" height="22" viewBox="0 0 25 22" fill="none" xmlns="http://www.w3.org/2000/svg">
<g clip-path="url(#clip0)">
<path d="M24.486 20.9295C23.6924 20.9295 22.8937 20.9295 22.1001 20.9295C20.1914 20.9295 18.2827 20.9295 16.374 20.9295C14.0659 20.9295 11.7578 20.9295 9.44451 20.9295C7.44762 20.9295 5.45073 20.9295 3.45903 20.9295C2.8055 20.9295 2.14679 20.9295 1.49326 20.9295C1.18206 20.9295 0.865669 20.9025 0.554466 20.9295C0.538906 20.9295 0.528532 20.9295 0.512972 20.9295C0.684134 21.1079 0.860483 21.2917 1.03164 21.4701C1.03164 20.8484 1.03164 20.2268 1.03164 19.6052C1.03164 18.1187 1.03164 16.6376 1.03164 15.1511C1.03164 13.3457 1.03164 11.5457 1.03164 9.74033C1.03164 8.18898 1.03164 6.63763 1.03164 5.08087C1.03164 4.56736 1.03164 4.05384 1.03164 3.54033C1.03164 3.29709 1.05239 3.04303 1.03164 2.79979C1.03164 2.78898 1.03164 2.77817 1.03164 2.76736C0.860483 2.94574 0.684134 3.12952 0.512972 3.3079C1.30654 3.3079 2.1053 3.3079 2.89886 3.3079C4.80758 3.3079 6.71629 3.3079 8.625 3.3079C10.9331 3.3079 13.2412 3.3079 15.5545 3.3079C17.5514 3.3079 19.5482 3.3079 21.5399 3.3079C22.1935 3.3079 22.8522 3.3079 23.5057 3.3079C23.8169 3.3079 24.1333 3.33492 24.4445 3.3079C24.4601 3.3079 24.4704 3.3079 24.486 3.3079C24.3148 3.12952 24.1385 2.94574 23.9673 2.76736C23.9673 3.38898 23.9673 4.0106 23.9673 4.63222C23.9673 6.11871 23.9673 7.59979 23.9673 9.08628C23.9673 10.8917 23.9673 12.6917 23.9673 14.4971C23.9673 16.0484 23.9673 17.5998 23.9673 19.1565C23.9673 19.9133 23.9362 20.6755 23.9673 21.4322C23.9673 21.443 23.9673 21.4538 23.9673 21.4647C23.9673 22.162 25.0047 22.162 25.0047 21.4647C25.0047 20.843 25.0047 20.2214 25.0047 19.5998C25.0047 18.1133 25.0047 16.6322 25.0047 15.1457C25.0047 13.3403 25.0047 11.5403 25.0047 9.73492C25.0047 8.18357 25.0047 6.63222 25.0047 5.07547C25.0047 4.31871 25.0358 3.55655 25.0047 2.79979C25.0047 2.78898 25.0047 2.77817 25.0047 2.76736C25.0047 2.47547 24.7661 2.22682 24.486 2.22682C23.6924 2.22682 22.8937 2.22682 22.1001 2.22682C20.1914 2.22682 18.2827 2.22682 16.374 2.22682C14.0659 2.22682 11.7578 2.22682 9.44451 2.22682C7.44762 2.22682 5.45073 2.22682 3.45903 2.22682C2.4943 2.22682 1.5192 2.19438 0.554466 2.22682C0.538906 2.22682 0.528532 2.22682 0.512972 2.22682C0.232889 2.22682 -0.00569999 2.47547 -0.00569999 2.76736C-0.00569999 3.38898 -0.00569999 4.0106 -0.00569999 4.63222C-0.00569999 6.11871 -0.00569999 7.59979 -0.00569999 9.08628C-0.00569999 10.8917 -0.00569999 12.6917 -0.00569999 14.4971C-0.00569999 16.0484 -0.00569999 17.5998 -0.00569999 19.1565C-0.00569999 19.9133 -0.0368203 20.6755 -0.00569999 21.4322C-0.00569999 21.443 -0.00569999 21.4538 -0.00569999 21.4647C-0.00569999 21.7565 0.232889 22.0052 0.512972 22.0052C1.30654 22.0052 2.1053 22.0052 2.89886 22.0052C4.80758 22.0052 6.71629 22.0052 8.625 22.0052C10.9331 22.0052 13.2412 22.0052 15.5545 22.0052C17.5514 22.0052 19.5482 22.0052 21.5399 22.0052C22.5047 22.0052 23.4798 22.0376 24.4445 22.0052C24.4601 22.0052 24.4704 22.0052 24.486 22.0052C25.1551 22.0106 25.1551 20.9295 24.486 20.9295Z" fill="black"/>
<path d="M0.521347 8.20532C1.3201 8.20532 2.11367 8.20532 2.91243 8.20532C4.81595 8.20532 6.71948 8.20532 8.623 8.20532C10.9311 8.20532 13.2444 8.20532 15.5525 8.20532C17.5442 8.20532 19.5307 8.20532 21.5224 8.20532C22.4923 8.20532 23.4622 8.24316 24.4321 8.20532C24.4477 8.20532 24.4581 8.20532 24.4736 8.20532C25.1427 8.20532 25.1427 7.12424 24.4736 7.12424C23.6749 7.12424 22.8813 7.12424 22.0825 7.12424C20.179 7.12424 18.2755 7.12424 16.372 7.12424C14.0639 7.12424 11.7506 7.12424 9.44251 7.12424C7.45081 7.12424 5.46429 7.12424 3.47259 7.12424C2.50267 7.12424 1.53276 7.0864 0.56284 7.12424C0.54728 7.12424 0.536907 7.12424 0.521347 7.12424C-0.147741 7.12424 -0.147741 8.20532 0.521347 8.20532Z" fill="black"/>
<path d="M5.14844 0.54585C5.14844 1.8972 5.14844 3.24315 5.14844 4.5945C5.14844 5.2918 6.18578 5.2918 6.18578 4.5945C6.18578 3.24315 6.18578 1.8972 6.18578 0.54585C6.18578 -0.146042 5.14844 -0.151447 5.14844 0.54585Z" fill="black"/>
<path d="M19.1328 0.54585C19.1328 1.8972 19.1328 3.24315 19.1328 4.5945C19.1328 5.2918 20.1702 5.2918 20.1702 4.5945C20.1702 3.24315 20.1702 1.8972 20.1702 0.54585C20.1702 -0.146042 19.1328 -0.151447 19.1328 0.54585Z" fill="black"/>
</g>
<defs>
<clipPath id="clip0">
<rect width="25" height="22" fill="white"/>
</clipPath>
</defs>
</svg>
