<svg width="71" height="71" viewBox="0 0 71 71" fill="none" xmlns="http://www.w3.org/2000/svg">
<path d="M42.6626 0V5.43637H61.2201L43.0385 23.6152C38.4931 19.919 32.7059 17.6915 26.4023 17.6915C11.8459 17.6915 0 29.5374 0 44.0966C0 58.653 11.8459 70.4988 26.4023 70.4988C40.9614 70.4988 52.8073 58.653 52.8073 44.0966C52.8073 37.7943 50.5798 32.0029 46.8809 27.4575L65.0624 9.27872V27.8362H70.4988V5.43498V2.71749V0H42.6626ZM47.3709 44.0966C47.3709 55.6584 37.9669 65.0624 26.4023 65.0624C14.8404 65.0624 5.43359 55.6584 5.43359 44.0966C5.43359 32.5319 14.8404 23.1251 26.4023 23.1251C37.9669 23.1251 47.3709 32.5319 47.3709 44.0966Z" fill="#BBBBBB"/>
</svg>
