<svg width="16" height="20" viewBox="0 0 16 20" fill="none" xmlns="http://www.w3.org/2000/svg">
<path fill-rule="evenodd" clip-rule="evenodd" d="M8.18287 0C7.16802 0 5.86527 0.242306 4.80196 1.00866C3.9379 1.6314 3.26609 2.57663 3.02505 3.92856H1H0V4.92856V18.9286V19.9286H1H15H16V18.9286V4.92856V3.92856H15H12.9493C12.8157 3.28216 12.5596 2.5714 12.1204 1.9314C11.3767 0.84755 10.1276 0 8.18287 0ZM12.0688 4.92856C12.0706 4.97763 12.0714 5.0253 12.0714 5.07143V6.42969H13.0714V5.07143C13.0714 5.02505 13.0707 4.97739 13.0693 4.92856H15V18.9286H1V4.92856H2.92997C2.92905 4.97578 2.92859 5.02341 2.92859 5.07143V6.42969H3.92859V5.07143C3.92859 5.02324 3.92912 4.97562 3.93017 4.92856H12.0688ZM11.9239 3.92856C11.8047 3.45183 11.6052 2.94793 11.2959 2.49717C10.7326 1.67626 9.78741 1 8.18287 1C7.30059 1 6.22619 1.21484 5.38665 1.81991C4.77856 2.25818 4.26472 2.9209 4.04411 3.92856H11.9239Z" fill="#666666"/>
</svg>
