<svg width="85" height="81" viewBox="0 0 85 81" fill="none" xmlns="http://www.w3.org/2000/svg">
<path d="M42.9123 0C33.1693 0.00017255 23.7755 3.5617 16.5623 9.99027C9.3491 16.4188 4.83353 25.2536 3.89589 34.7723C2.95826 44.291 5.66578 53.8112 11.4906 61.4771C17.3154 69.143 25.84 74.4049 35.4026 76.2372C36.059 77.6514 37.116 78.8503 38.4476 79.6911C39.7792 80.5318 41.329 80.9789 42.9123 80.9789C44.4955 80.9789 46.0454 80.5318 47.377 79.6911C48.7085 78.8503 49.7655 77.6514 50.422 76.2372C59.9845 74.4049 68.5091 69.143 74.3339 61.4771C80.1588 53.8112 82.8663 44.291 81.9286 34.7723C80.991 25.2536 76.4754 16.4188 69.2623 9.99027C62.0491 3.5617 52.6553 0.00017255 42.9123 0ZM38.7861 72.9C38.7776 72.8219 38.7776 72.7432 38.7861 72.6651C38.7861 71.591 39.2208 70.5608 39.9946 69.8013C40.7684 69.0418 41.8179 68.6151 42.9123 68.6151C44.0066 68.6151 45.0561 69.0418 45.8299 69.8013C46.6038 70.5608 47.0385 71.591 47.0385 72.6651C47.047 72.7432 47.047 72.8219 47.0385 72.9C47.0385 73.9741 46.6038 75.0043 45.8299 75.7638C45.0561 76.5233 44.0066 76.95 42.9123 76.95C41.8179 76.95 40.7684 76.5233 39.9946 75.7638C39.2208 75.0043 38.7861 73.9741 38.7861 72.9ZM51.1069 71.9523C50.8684 69.9836 49.9024 68.1691 48.3922 66.8526C46.8819 65.5361 44.9322 64.809 42.9123 64.809C40.8924 64.809 38.9426 65.5361 37.4324 66.8526C35.9221 68.1691 34.9562 69.9836 34.7176 71.9523C26.3679 69.9829 19.0444 65.0753 14.1354 58.1595C9.22629 51.2438 7.07277 42.8006 8.083 34.4304C9.09322 26.0601 13.197 18.3445 19.6164 12.746C26.0359 7.14746 34.3249 4.05513 42.9123 4.05513C51.4997 4.05513 59.7887 7.14746 66.2081 12.746C72.6276 18.3445 76.7313 26.0601 77.7415 34.4304C78.7518 42.8006 76.5983 51.2438 71.6892 58.1595C66.7801 65.0753 59.4566 69.9829 51.1069 71.9523Z" fill="#BBBBBB"/>
</svg>
