<?xml version="1.0" encoding="utf-8"?>
<!-- Generator: Adobe Illustrator 25.2.0, SVG Export Plug-In . SVG Version: 6.00 Build 0)  -->
<svg version="1.1" id="Layer_1" xmlns="http://www.w3.org/2000/svg" xmlns:xlink="http://www.w3.org/1999/xlink" x="0px" y="0px"
	 viewBox="0 0 22 21" style="enable-background:new 0 0 22 21;" xml:space="preserve">
<style type="text/css">
	.st0{clip-path:url(#SVGID_2_);}
	.st1{fill:#BAE0CC;}
	.st2{fill:#A4A4A4;}
</style>
<g>
	<defs>
		<rect id="SVGID_1_" x="0.4" y="0.4" width="21" height="19.9"/>
	</defs>
	<clipPath id="SVGID_2_">
		<use xlink:href="#SVGID_1_"  style="overflow:visible;"/>
	</clipPath>
	<g class="st0">
		<g id="XMLID_1_">
			<g>
				<path class="st1" d="M18.4,6c0,4.1-4,7.3-7.5,9.3c-3.5-2-7.5-5.2-7.5-9.3c0-2.3,1.3-4.4,3.4-4.4c1.6,0,2.9,1,3.5,2
					c0.2,0.4,0.8,0.4,1,0c0,0,1.2-2,3.5-2C17.1,1.6,18.4,3.8,18.4,6z"/>
				<path class="st2" d="M11,2.3c0.7-0.7,2-1.9,4-1.9c2.7,0,4.6,2.6,4.6,5.6c0,1.4-0.4,3.5-2.5,5.9c3,0.6,3.9,2.6,3.9,3.7
					c0,0.7-0.4,1.3-0.9,1.8c-0.5,0.5-1.3,1-2.2,1.3c-1.8,0.7-4.3,1.1-6.9,1.1s-5.2-0.4-7-1.1c-0.9-0.4-1.7-0.8-2.2-1.3
					c-0.5-0.5-0.9-1.1-0.9-1.8c-0.1-0.6,0.1-1.5,0.8-2.3c0.6-0.7,1.6-1.2,3.1-1.5C2.8,9.5,2.4,7.4,2.4,6c0-2.9,1.8-5.6,4.6-5.6
					C9,0.4,10.3,1.6,11,2.3z M16.3,12.8c-1.2,1.2-2.8,2.5-5.1,3.7c-0.2,0.1-0.4,0.1-0.6,0c-2.2-1.2-3.9-2.5-5.1-3.7
					c-1.8,0.2-2.7,0.8-3.2,1.3c-0.5,0.5-0.6,1.1-0.5,1.4l0,0v0.1c0,0.3,0.2,0.7,0.6,1.1c0.4,0.4,1.1,0.8,1.9,1.1
					c1.7,0.6,4,1.1,6.6,1.1c2.6,0,4.9-0.4,6.6-1.1c0.8-0.3,1.5-0.7,1.9-1.1S20,16,20,15.6C20,15,19.4,13.2,16.3,12.8z M15,1.6
					c-2.3,0-3.5,1.9-3.5,2c-0.2,0.4-0.8,0.4-1,0c-0.6-0.9-1.9-2-3.5-2C4.8,1.6,3.5,3.8,3.5,6c0,4.1,4,7.3,7.5,9.3
					c3.5-2,7.5-5.2,7.5-9.3C18.4,3.8,17.1,1.6,15,1.6z"/>
			</g>
			<g>
			</g>
		</g>
	</g>
</g>
</svg>
