<svg width="101" height="101" viewBox="0 0 101 101" fill="none" xmlns="http://www.w3.org/2000/svg">
<path d="M50.39 97C60.6998 96.9944 70.6582 93.3086 78.4212 86.6251C86.1843 79.9417 91.2259 70.7134 92.6125 60.6492C93.9992 50.5849 91.6369 40.3666 85.9631 31.8865C80.2893 23.4064 71.6884 17.2389 61.7531 14.5263L62.2926 10.7892C62.455 9.67482 62.3929 8.53985 62.11 7.44909C61.8271 6.35834 61.3288 5.33318 60.6437 4.43216C59.9585 3.53114 59.0999 2.77191 58.1169 2.19784C57.1338 1.62377 56.0456 1.2461 54.9144 1.08641C54.4765 1.02373 54.0343 0.995067 53.5919 1.00069H47.1011C45.9513 0.989364 44.8105 1.2027 43.7448 1.62838C42.6791 2.05406 41.7097 2.68363 40.8925 3.48068C40.0753 4.27774 39.4266 5.22647 38.984 6.27202C38.5413 7.31757 38.3134 8.4392 38.3134 9.57206C38.2991 10.0081 38.3283 10.4445 38.4004 10.8749L38.9399 14.612C29.0701 17.3853 20.5471 23.5729 14.9359 32.0389C9.32472 40.5048 7.00196 50.6807 8.39415 60.6981C9.78634 70.7155 14.8 79.9019 22.5146 86.5705C30.2292 93.2391 40.1268 96.9422 50.39 97V97ZM42.3332 13.0006L41.9503 10.2921C41.847 9.61957 41.8801 8.93357 42.0477 8.27377C42.2153 7.61397 42.5141 6.99348 42.9268 6.44822C43.3395 5.90296 43.8579 5.44375 44.452 5.09719C45.046 4.75063 45.704 4.5236 46.3877 4.42924H47.1708H53.7485C55.133 4.42924 56.4609 4.97107 57.4399 5.93554C58.4189 6.9 58.9689 8.2081 58.9689 9.57206C58.9862 9.82892 58.9862 10.0866 58.9689 10.3435L58.4469 13.0006H42.3332ZM50.39 16.4292C58.1338 16.4292 65.7036 18.6913 72.1423 22.9296C78.581 27.1678 83.5994 33.1918 86.5628 40.2398C89.5262 47.2877 90.3016 55.0431 88.7908 62.5252C87.2801 70.0072 83.5511 76.88 78.0755 82.2742C72.5998 87.6685 65.6234 91.342 58.0284 92.8303C50.4334 94.3186 42.5611 93.5548 35.4068 90.6354C28.2525 87.716 22.1376 82.7723 17.8354 76.4293C13.5332 70.0863 11.2369 62.629 11.2369 55.0003C11.2369 44.7706 15.3619 34.9599 22.7046 27.7264C30.0472 20.4929 40.006 16.4292 50.39 16.4292V16.4292Z" fill="#BBBBBB" stroke="#BBBBBA" stroke-width="1.2" stroke-miterlimit="10"/>
</svg>
