<svg width="20" height="20" viewBox="0 0 20 20" fill="none" xmlns="http://www.w3.org/2000/svg">
<path fill-rule="evenodd" clip-rule="evenodd" d="M10.0006 1.89153C10.6301 1.14089 11.8992 0.00634766 13.8188 0.00634766C16.3863 0.00634766 18.1824 2.57427 18.1824 5.59621C18.1824 6.96392 17.788 9.13424 15.853 11.539C18.7252 12.1622 19.5913 14.1149 19.5913 15.2381C19.5913 15.9372 19.2511 16.5587 18.7288 17.0761C18.2084 17.5917 17.4808 18.0331 16.6219 18.393C14.902 19.1137 12.5606 19.5476 10.0004 19.5476C7.44019 19.5476 5.09884 19.1137 3.37892 18.393C2.52001 18.0331 1.79242 17.5917 1.272 17.0761C0.759547 16.5684 0.422346 15.9606 0.409854 15.2774C0.324016 14.6614 0.48458 13.7928 1.15926 13.0267C1.74806 12.3581 2.69747 11.8006 4.13752 11.5258C2.21164 9.1263 1.81874 6.96142 1.81874 5.59621C1.81874 2.6428 3.56316 0.00634766 6.18237 0.00634766C8.10193 0.00634766 9.37104 1.14096 10.0006 1.89153ZM4.91647 12.4173C3.27098 12.6131 2.37829 13.1556 1.90972 13.6876C1.42461 14.2385 1.3501 14.8252 1.40328 15.1596L1.40949 15.1986V15.2381C1.40949 15.591 1.57802 15.9717 1.97581 16.3658C2.37543 16.7617 2.97918 17.1412 3.7654 17.4707C5.33574 18.1288 7.53985 18.5476 10.0004 18.5476C12.461 18.5476 14.6651 18.1288 16.2354 17.4707C17.0216 17.1412 17.6254 16.7617 18.025 16.3658C18.4228 15.9717 18.5913 15.591 18.5913 15.2381C18.5913 14.5648 17.9971 12.8107 15.083 12.419C13.9327 13.6334 12.3708 14.8885 10.2584 16.1153C10.0974 16.2089 9.90366 16.2088 9.74267 16.1153C7.62926 14.8879 6.06695 13.6322 4.91647 12.4173ZM2.90964 5.59621C2.90964 9.66826 6.68887 12.9522 10.0006 14.9232C13.3123 12.9522 17.0915 9.66832 17.0915 5.59618C17.0915 3.35252 15.8499 1.18718 13.8188 1.18718C11.6133 1.18718 10.476 3.13692 10.4647 3.15661C10.2521 3.52947 9.75079 3.52985 9.53733 3.1582C8.97735 2.20237 7.71189 1.18721 6.18237 1.18721C4.16628 1.18721 2.90964 3.33103 2.90964 5.59621Z" fill="#C9E4BB"/>
</svg>
