<svg width="20" height="20" viewBox="0 0 20 20" fill="none" xmlns="http://www.w3.org/2000/svg">
<path fill-rule="evenodd" clip-rule="evenodd" d="M10.0006 1.89105C10.6301 1.1404 11.8992 0.00585938 13.8188 0.00585938C16.3863 0.00585938 18.1824 2.57378 18.1824 5.59572C18.1824 6.96343 17.788 9.13375 15.853 11.5386C18.7252 12.1618 19.5913 14.1144 19.5913 15.2376C19.5913 15.9367 19.2511 16.5582 18.7288 17.0757C18.2084 17.5913 17.4808 18.0326 16.6219 18.3925C14.902 19.1132 12.5606 19.5471 10.0004 19.5471C7.44019 19.5471 5.09884 19.1132 3.37892 18.3925C2.52001 18.0326 1.79242 17.5913 1.272 17.0757C0.759547 16.568 0.422346 15.9601 0.409854 15.277C0.324016 14.6609 0.48458 13.7923 1.15926 13.0262C1.74806 12.3576 2.69747 11.8002 4.13752 11.5253C2.21164 9.12581 1.81874 6.96093 1.81874 5.59572C1.81874 2.64231 3.56316 0.00585938 6.18237 0.00585938C8.10193 0.00585938 9.37104 1.14047 10.0006 1.89105ZM4.91647 12.4168C3.27098 12.6126 2.37829 13.1551 1.90972 13.6871C1.42461 14.238 1.3501 14.8248 1.40328 15.1591L1.40949 15.1981V15.2376C1.40949 15.5905 1.57802 15.9712 1.97581 16.3653C2.37543 16.7612 2.97918 17.1408 3.7654 17.4702C5.33574 18.1283 7.53985 18.5471 10.0004 18.5471C12.461 18.5471 14.6651 18.1283 16.2354 17.4702C17.0216 17.1408 17.6254 16.7612 18.025 16.3653C18.4228 15.9712 18.5913 15.5905 18.5913 15.2376C18.5913 14.5643 17.9971 12.8102 15.083 12.4185C13.9327 13.6329 12.3708 14.888 10.2584 16.1148C10.0974 16.2084 9.90366 16.2083 9.74267 16.1148C7.62926 14.8874 6.06695 13.6317 4.91647 12.4168ZM2.90964 5.59572C2.90964 9.66777 6.68887 12.9517 10.0006 14.9227C13.3123 12.9517 17.0915 9.66784 17.0915 5.59569C17.0915 3.35203 15.8499 1.18669 13.8188 1.18669C11.6133 1.18669 10.476 3.13643 10.4647 3.15612C10.2521 3.52898 9.75079 3.52936 9.53733 3.15771C8.97735 2.20188 7.71189 1.18673 6.18237 1.18673C4.16628 1.18673 2.90964 3.33055 2.90964 5.59572Z" fill="black"/>
</svg>
